<?xml version="1.0" standalone="no"?>
<!DOCTYPE svg PUBLIC "-//W3C//DTD SVG 1.1//EN" "http://www.w3.org/Graphics/SVG/1.1/DTD/svg11.dtd">
<svg width="110px" height="25px" viewBox="0 0 703 154" version="1.1" xmlns="http://www.w3.org/2000/svg" xmlns:xlink="http://www.w3.org/1999/xlink" xml:space="preserve" style="fill-rule:evenodd;clip-rule:evenodd;stroke-linejoin:round;stroke-miterlimit:1.41421;">
    <g transform="matrix(4.04614,0,0,4.04614,-2808.8,-1406.02)">
        <path d="M694.192,385.07L698.742,347.645L706.342,347.645L704.417,363.22C705.567,361.82 706.821,360.724 708.18,359.933C709.538,359.141 710.975,358.745 712.492,358.745C713.559,358.745 714.534,358.933 715.417,359.308C716.3,359.683 717.063,360.27 717.705,361.07C718.346,361.87 718.846,362.891 719.205,364.133C719.563,365.374 719.742,366.854 719.742,368.57C719.742,370.837 719.396,372.991 718.705,375.033C718.013,377.074 717.084,378.87 715.917,380.42C714.75,381.97 713.405,383.199 711.88,384.108C710.355,385.016 708.759,385.47 707.092,385.47C705.809,385.47 704.68,385.224 703.705,384.733C702.73,384.241 701.9,383.595 701.217,382.795L701.142,383.045C700.909,383.745 700.609,384.258 700.242,384.583C699.875,384.908 699.275,385.07 698.442,385.07L694.192,385.07ZM709.392,364.62C708.842,364.62 708.271,364.829 707.68,365.245C707.088,365.662 706.517,366.233 705.967,366.958C705.417,367.683 704.905,368.533 704.43,369.508C703.955,370.483 703.559,371.52 703.242,372.62L702.492,378.67C702.975,379.07 703.517,379.354 704.117,379.52C704.717,379.687 705.292,379.77 705.842,379.77C706.742,379.77 707.571,379.47 708.33,378.87C709.088,378.27 709.742,377.483 710.292,376.508C710.842,375.533 711.271,374.42 711.58,373.17C711.888,371.92 712.042,370.645 712.042,369.345C712.042,367.695 711.8,366.495 711.317,365.745C710.834,364.995 710.192,364.62 709.392,364.62Z" style="fill:rgb(81,51,165);fill-rule:nonzero;"/>
        <path d="M732.742,359.145L729.642,385.07L721.992,385.07L725.092,359.145L732.742,359.145ZM734.192,352.045C734.192,352.662 734.059,353.241 733.792,353.783C733.525,354.324 733.175,354.799 732.742,355.208C732.309,355.616 731.813,355.941 731.255,356.183C730.696,356.424 730.125,356.545 729.542,356.545C728.959,356.545 728.4,356.424 727.867,356.183C727.334,355.941 726.863,355.616 726.455,355.208C726.046,354.799 725.717,354.324 725.467,353.783C725.217,353.241 725.092,352.662 725.092,352.045C725.092,351.429 725.217,350.845 725.467,350.295C725.717,349.745 726.055,349.262 726.48,348.845C726.905,348.429 727.384,348.099 727.917,347.858C728.45,347.616 729.009,347.495 729.592,347.495C730.192,347.495 730.767,347.612 731.317,347.845C731.867,348.079 732.355,348.404 732.78,348.82C733.205,349.237 733.546,349.72 733.805,350.27C734.063,350.82 734.192,351.412 734.192,352.045Z" style="fill:rgb(81,51,165);fill-rule:nonzero;"/>
        <path d="M750.142,385.07L752.092,368.595C752.125,368.329 752.15,368.083 752.167,367.858C752.184,367.633 752.192,367.42 752.192,367.22C752.192,366.337 752.038,365.724 751.73,365.383C751.421,365.041 750.959,364.87 750.342,364.87C749.775,364.87 749.184,365.045 748.567,365.395C747.95,365.745 747.363,366.237 746.805,366.87C746.246,367.504 745.734,368.274 745.267,369.183C744.8,370.091 744.434,371.095 744.167,372.195L742.742,385.07L734.992,385.07L738.092,359.145L742.092,359.145C742.892,359.145 743.517,359.333 743.967,359.708C744.417,360.083 744.642,360.695 744.642,361.545L744.642,363.62C745.892,361.954 747.259,360.724 748.742,359.933C750.225,359.141 751.759,358.745 753.342,358.745C754.309,358.745 755.196,358.92 756.005,359.27C756.813,359.62 757.509,360.133 758.092,360.808C758.675,361.483 759.134,362.312 759.467,363.295C759.8,364.279 759.967,365.412 759.967,366.695C759.967,366.995 759.955,367.304 759.93,367.62C759.905,367.937 759.875,368.262 759.842,368.595L757.892,385.07L750.142,385.07Z" style="fill:rgb(81,51,165);fill-rule:nonzero;"/>
        <path d="M780.742,385.07C780.259,385.07 779.855,385.008 779.53,384.883C779.205,384.758 778.946,384.587 778.755,384.37C778.563,384.154 778.43,383.895 778.355,383.595C778.28,383.295 778.242,382.97 778.242,382.62L778.242,380.445C777.059,382.012 775.75,383.241 774.317,384.133C772.884,385.024 771.359,385.47 769.742,385.47C768.675,385.47 767.7,385.283 766.817,384.908C765.934,384.533 765.171,383.945 764.53,383.145C763.888,382.345 763.388,381.324 763.03,380.083C762.671,378.841 762.492,377.354 762.492,375.62C762.492,374.12 762.65,372.658 762.967,371.233C763.284,369.808 763.725,368.47 764.292,367.22C764.859,365.97 765.534,364.824 766.317,363.783C767.1,362.741 767.963,361.849 768.905,361.108C769.846,360.366 770.842,359.787 771.892,359.37C772.942,358.954 774.025,358.745 775.142,358.745C776.209,358.745 777.171,358.924 778.03,359.283C778.888,359.641 779.642,360.112 780.292,360.695L781.942,347.645L789.542,347.645L784.892,385.07L780.742,385.07ZM772.842,379.57C773.375,379.57 773.93,379.37 774.505,378.97C775.08,378.57 775.638,378.02 776.18,377.32C776.721,376.62 777.225,375.799 777.692,374.858C778.159,373.916 778.559,372.904 778.892,371.82L779.692,365.52C779.209,365.137 778.671,364.862 778.08,364.695C777.488,364.529 776.925,364.445 776.392,364.445C775.492,364.445 774.663,364.745 773.905,365.345C773.146,365.945 772.492,366.733 771.942,367.708C771.392,368.683 770.963,369.795 770.655,371.045C770.346,372.295 770.192,373.57 770.192,374.87C770.192,376.52 770.434,377.716 770.917,378.458C771.4,379.199 772.042,379.57 772.842,379.57Z" style="fill:rgb(81,51,165);fill-rule:nonzero;"/>
        <path d="M807.742,364.595C807.509,364.895 807.292,365.112 807.092,365.245C806.892,365.379 806.625,365.445 806.292,365.445C805.959,365.445 805.63,365.37 805.305,365.22C804.98,365.07 804.63,364.899 804.255,364.708C803.88,364.516 803.455,364.345 802.98,364.195C802.505,364.045 801.959,363.97 801.342,363.97C800.192,363.97 799.371,364.191 798.88,364.633C798.388,365.074 798.142,365.645 798.142,366.345C798.142,366.795 798.28,367.179 798.555,367.495C798.83,367.812 799.192,368.095 799.642,368.345C800.092,368.595 800.605,368.824 801.18,369.033C801.755,369.241 802.342,369.474 802.942,369.733C803.542,369.991 804.13,370.287 804.705,370.62C805.28,370.954 805.792,371.362 806.242,371.845C806.692,372.329 807.055,372.904 807.33,373.57C807.605,374.237 807.742,375.029 807.742,375.945C807.742,377.245 807.484,378.474 806.967,379.633C806.45,380.791 805.709,381.799 804.742,382.658C803.775,383.516 802.605,384.199 801.23,384.708C799.855,385.216 798.309,385.47 796.592,385.47C795.775,385.47 794.967,385.387 794.167,385.22C793.367,385.054 792.613,384.829 791.905,384.545C791.196,384.262 790.55,383.924 789.967,383.533C789.384,383.141 788.909,382.72 788.542,382.27L790.442,379.42C790.675,379.087 790.946,378.824 791.255,378.633C791.563,378.441 791.942,378.345 792.392,378.345C792.809,378.345 793.167,378.445 793.467,378.645C793.767,378.845 794.092,379.062 794.442,379.295C794.792,379.529 795.209,379.745 795.692,379.945C796.175,380.145 796.809,380.245 797.592,380.245C798.692,380.245 799.509,379.999 800.042,379.508C800.575,379.016 800.842,378.437 800.842,377.77C800.842,377.254 800.705,376.829 800.43,376.495C800.155,376.162 799.792,375.874 799.342,375.633C798.892,375.391 798.384,375.174 797.817,374.983C797.25,374.791 796.667,374.579 796.067,374.345C795.467,374.112 794.884,373.841 794.317,373.533C793.75,373.224 793.242,372.837 792.792,372.37C792.342,371.904 791.98,371.329 791.705,370.645C791.43,369.962 791.292,369.137 791.292,368.17C791.292,366.97 791.513,365.804 791.955,364.67C792.396,363.537 793.055,362.533 793.93,361.658C794.805,360.783 795.892,360.079 797.192,359.545C798.492,359.012 800.009,358.745 801.742,358.745C803.475,358.745 805.021,359.045 806.38,359.645C807.738,360.245 808.859,360.979 809.742,361.845L807.742,364.595Z" style="fill:rgb(81,51,165);fill-rule:nonzero;"/>
        <path d="M809.517,381.145C809.517,380.545 809.63,379.987 809.855,379.47C810.08,378.954 810.388,378.504 810.78,378.12C811.171,377.737 811.634,377.433 812.167,377.208C812.7,376.983 813.284,376.87 813.917,376.87C814.534,376.87 815.109,376.983 815.642,377.208C816.175,377.433 816.642,377.737 817.042,378.12C817.442,378.504 817.755,378.954 817.98,379.47C818.205,379.987 818.317,380.545 818.317,381.145C818.317,381.745 818.205,382.308 817.98,382.833C817.755,383.358 817.442,383.812 817.042,384.195C816.642,384.579 816.175,384.879 815.642,385.095C815.109,385.312 814.534,385.42 813.917,385.42C813.284,385.42 812.7,385.312 812.167,385.095C811.634,384.879 811.171,384.579 810.78,384.195C810.388,383.812 810.08,383.358 809.855,382.833C809.63,382.308 809.517,381.745 809.517,381.145Z" style="fill:rgb(81,51,165);fill-rule:nonzero;"/>
        <path d="M842.092,380.52C841.259,381.437 840.459,382.212 839.692,382.845C838.925,383.479 838.134,383.987 837.317,384.37C836.5,384.754 835.63,385.033 834.705,385.208C833.78,385.383 832.759,385.47 831.642,385.47C830.125,385.47 828.759,385.212 827.542,384.695C826.325,384.179 825.288,383.445 824.43,382.495C823.571,381.545 822.909,380.395 822.442,379.045C821.975,377.695 821.742,376.179 821.742,374.495C821.742,372.379 822.088,370.37 822.78,368.47C823.471,366.57 824.438,364.904 825.68,363.47C826.921,362.037 828.392,360.899 830.092,360.058C831.792,359.216 833.659,358.795 835.692,358.795C837.425,358.795 838.913,359.091 840.155,359.683C841.396,360.274 842.509,361.204 843.492,362.47L840.992,365.345C840.809,365.529 840.6,365.691 840.367,365.833C840.134,365.974 839.875,366.045 839.592,366.045C839.259,366.045 838.98,365.974 838.755,365.833C838.53,365.691 838.284,365.541 838.017,365.383C837.75,365.224 837.425,365.074 837.042,364.933C836.659,364.791 836.159,364.72 835.542,364.72C834.775,364.72 834.03,364.941 833.305,365.383C832.58,365.824 831.934,366.462 831.367,367.295C830.8,368.129 830.346,369.154 830.005,370.37C829.663,371.587 829.492,372.97 829.492,374.52C829.492,375.387 829.592,376.141 829.792,376.783C829.992,377.424 830.267,377.958 830.617,378.383C830.967,378.808 831.375,379.129 831.842,379.345C832.309,379.562 832.809,379.67 833.342,379.67C834.142,379.67 834.788,379.558 835.28,379.333C835.771,379.108 836.2,378.862 836.567,378.595C836.934,378.329 837.275,378.083 837.592,377.858C837.909,377.633 838.292,377.52 838.742,377.52C838.992,377.52 839.238,377.579 839.48,377.695C839.721,377.812 839.925,377.97 840.092,378.17L842.092,380.52Z" style="fill:rgb(81,51,165);fill-rule:nonzero;"/>
        <path d="M854.392,379.72C855.259,379.72 856.034,379.458 856.717,378.933C857.4,378.408 857.98,377.691 858.455,376.783C858.93,375.874 859.296,374.816 859.555,373.608C859.813,372.399 859.942,371.112 859.942,369.745C859.942,367.862 859.688,366.516 859.18,365.708C858.671,364.899 857.842,364.495 856.692,364.495C855.825,364.495 855.05,364.758 854.367,365.283C853.684,365.808 853.105,366.52 852.63,367.42C852.155,368.32 851.788,369.379 851.53,370.595C851.271,371.812 851.142,373.104 851.142,374.47C851.142,376.32 851.396,377.658 851.905,378.483C852.413,379.308 853.242,379.72 854.392,379.72ZM853.692,385.47C852.242,385.47 850.888,385.229 849.63,384.745C848.371,384.262 847.28,383.558 846.355,382.633C845.43,381.708 844.705,380.566 844.18,379.208C843.655,377.849 843.392,376.287 843.392,374.52C843.392,372.22 843.771,370.108 844.53,368.183C845.288,366.258 846.309,364.595 847.592,363.195C848.875,361.795 850.363,360.704 852.055,359.92C853.746,359.137 855.525,358.745 857.392,358.745C858.842,358.745 860.192,358.987 861.442,359.47C862.692,359.954 863.78,360.658 864.705,361.583C865.63,362.508 866.359,363.649 866.892,365.008C867.425,366.366 867.692,367.929 867.692,369.695C867.692,371.962 867.313,374.058 866.555,375.983C865.796,377.908 864.775,379.574 863.492,380.983C862.209,382.391 860.721,383.491 859.03,384.283C857.338,385.074 855.559,385.47 853.692,385.47Z" style="fill:rgb(81,51,165);fill-rule:nonzero;"/>
    </g>
</svg>
